<svg width="22" height="12" viewBox="0 0 22 12" fill="none" xmlns="http://www.w3.org/2000/svg">
<path d="M2 9.725H20C20.2833 9.725 20.5208 9.82083 20.7125 10.0125C20.9042 10.2042 21 10.4417 21 10.725C21 11.0083 20.9042 11.2458 20.7125 11.4375C20.5208 11.6292 20.2833 11.725 20 11.725H2C1.71667 11.725 1.47917 11.6292 1.2875 11.4375C1.09583 11.2458 1 11.0083 1 10.725C1 10.4417 1.09583 10.2042 1.2875 10.0125C1.47917 9.82083 1.71667 9.725 2 9.725ZM3 4.175L2.525 5.025C2.425 5.20833 2.275 5.325 2.075 5.375C1.875 5.425 1.68333 5.4 1.5 5.3C1.31667 5.2 1.2 5.05 1.15 4.85C1.1 4.65 1.125 4.45833 1.225 4.275L1.7 3.425H0.75C0.533333 3.425 0.354167 3.35417 0.2125 3.2125C0.0708333 3.07083 0 2.89167 0 2.675C0 2.45833 0.0708333 2.27917 0.2125 2.1375C0.354167 1.99583 0.533333 1.925 0.75 1.925H1.7L1.225 1.125C1.125 0.941667 1.1 0.75 1.15 0.55C1.2 0.35 1.31667 0.2 1.5 0.1C1.68333 0 1.875 -0.025 2.075 0.025C2.275 0.075 2.425 0.191667 2.525 0.375L3 1.175L3.475 0.375C3.575 0.191667 3.725 0.075 3.925 0.025C4.125 -0.025 4.31667 0 4.5 0.1C4.68333 0.2 4.8 0.35 4.85 0.55C4.9 0.75 4.875 0.941667 4.775 1.125L4.3 1.925H5.25C5.46667 1.925 5.64583 1.99583 5.7875 2.1375C5.92917 2.27917 6 2.45833 6 2.675C6 2.89167 5.92917 3.07083 5.7875 3.2125C5.64583 3.35417 5.46667 3.425 5.25 3.425H4.3L4.775 4.275C4.875 4.45833 4.9 4.65 4.85 4.85C4.8 5.05 4.68333 5.2 4.5 5.3C4.31667 5.4 4.125 5.425 3.925 5.375C3.725 5.325 3.575 5.20833 3.475 5.025L3 4.175ZM11 4.175L10.525 5.025C10.425 5.20833 10.275 5.325 10.075 5.375C9.875 5.425 9.68333 5.4 9.5 5.3C9.31667 5.2 9.2 5.05 9.15 4.85C9.1 4.65 9.125 4.45833 9.225 4.275L9.7 3.425H8.75C8.53333 3.425 8.35417 3.35417 8.2125 3.2125C8.07083 3.07083 8 2.89167 8 2.675C8 2.45833 8.07083 2.27917 8.2125 2.1375C8.35417 1.99583 8.53333 1.925 8.75 1.925H9.7L9.225 1.125C9.125 0.941667 9.1 0.75 9.15 0.55C9.2 0.35 9.31667 0.2 9.5 0.1C9.68333 0 9.875 -0.025 10.075 0.025C10.275 0.075 10.425 0.191667 10.525 0.375L11 1.175L11.475 0.375C11.575 0.191667 11.725 0.075 11.925 0.025C12.125 -0.025 12.3167 0 12.5 0.1C12.6833 0.2 12.8 0.35 12.85 0.55C12.9 0.75 12.875 0.941667 12.775 1.125L12.3 1.925H13.25C13.4667 1.925 13.6458 1.99583 13.7875 2.1375C13.9292 2.27917 14 2.45833 14 2.675C14 2.89167 13.9292 3.07083 13.7875 3.2125C13.6458 3.35417 13.4667 3.425 13.25 3.425H12.3L12.775 4.275C12.875 4.45833 12.9 4.65 12.85 4.85C12.8 5.05 12.6833 5.2 12.5 5.3C12.3167 5.4 12.125 5.425 11.925 5.375C11.725 5.325 11.575 5.20833 11.475 5.025L11 4.175ZM19 4.175L18.525 5.025C18.425 5.20833 18.275 5.325 18.075 5.375C17.875 5.425 17.6833 5.4 17.5 5.3C17.3167 5.2 17.2 5.05 17.15 4.85C17.1 4.65 17.125 4.45833 17.225 4.275L17.7 3.425H16.75C16.5333 3.425 16.3542 3.35417 16.2125 3.2125C16.0708 3.07083 16 2.89167 16 2.675C16 2.45833 16.0708 2.27917 16.2125 2.1375C16.3542 1.99583 16.5333 1.925 16.75 1.925H17.7L17.225 1.125C17.125 0.941667 17.1 0.75 17.15 0.55C17.2 0.35 17.3167 0.2 17.5 0.1C17.6833 0 17.875 -0.025 18.075 0.025C18.275 0.075 18.425 0.191667 18.525 0.375L19 1.175L19.475 0.375C19.575 0.191667 19.725 0.075 19.925 0.025C20.125 -0.025 20.3167 0 20.5 0.1C20.6833 0.2 20.8 0.35 20.85 0.55C20.9 0.75 20.875 0.941667 20.775 1.125L20.3 1.925H21.25C21.4667 1.925 21.6458 1.99583 21.7875 2.1375C21.9292 2.27917 22 2.45833 22 2.675C22 2.89167 21.9292 3.07083 21.7875 3.2125C21.6458 3.35417 21.4667 3.425 21.25 3.425H20.3L20.775 4.275C20.875 4.45833 20.9 4.65 20.85 4.85C20.8 5.05 20.6833 5.2 20.5 5.3C20.3167 5.4 20.125 5.425 19.925 5.375C19.725 5.325 19.575 5.20833 19.475 5.025L19 4.175Z" fill="#154579"/>
</svg>
